<svg width="470" height="77" xmlns="http://www.w3.org/2000/svg">
 <g id="Layer_1">
  <title>Layer 1</title>
  <g stroke="null" id="svg_29">
   <g stroke="null" id="svg_6">
    <g stroke="null" id="svg_7">
     <g stroke="null" id="svg_8">
      <path fill="#000000" id="svg_9" d="m293.1863,29.37792l-17.66552,0c0.85832,-0.95198 1.45381,-2.08129 1.72713,-3.30471l0.75836,-3.39573c0.50422,-2.25735 -0.14154,-4.57306 -1.77109,-6.35345c-1.04288,-1.13934 -2.40482,-1.96766 -3.92392,-2.41654c0.10103,-0.14874 0.18884,-0.30559 0.26188,-0.46905l1.47728,-3.30738c0.02526,-0.05676 0.04885,-0.11385 0.0703,-0.17093c0.47336,-1.26151 -0.08578,-2.5528 -1.39149,-3.21306c-1.31643,-0.6657 -2.91274,-0.41624 -3.88198,0.60659l-0.122,0.12879c-0.30549,0.32245 -0.75169,0.50747 -1.22386,0.50747c-0.47217,0 -0.91837,-0.18491 -1.22374,-0.50725l-0.12236,-0.12932c-0.96924,-1.02272 -2.56555,-1.27176 -3.88163,-0.60638c-1.30571,0.66026 -1.86498,1.95154 -1.39149,3.21295c0.02145,0.05708 0.04492,0.11417 0.07053,0.17179l1.47692,3.30674c0.0728,0.16304 0.16096,0.31989 0.2626,0.46873c-1.51958,0.44878 -2.88176,1.2772 -3.92464,2.41665c-1.62955,1.78029 -2.27531,4.096 -1.77109,6.35345l0.75836,3.39562c0.27332,1.22353 0.86869,2.35274 1.72713,3.30482l-17.66599,0c-2.65562,0.00021 -4.81596,1.93501 -4.81596,4.31324c0,2.08289 1.65719,3.82562 3.85279,4.22639l0,19.92687c0,1.74401 1.58439,3.16291 3.5317,3.16291l46.23328,0c1.94731,0 3.5317,-1.4189 3.5317,-3.16291l0,-19.92677c2.1956,-0.40077 3.85279,-2.1436 3.85279,-4.22639c0,-2.37834 -2.16034,-4.31314 -4.81596,-4.31314zm-29.96557,-21.12853c0.41069,-0.20774 1.01154,-0.25885 1.4656,0.22012l0.12224,0.12932c0.67245,0.70934 1.65373,1.1163 2.6928,1.1163c1.03906,0 2.02046,-0.40685 2.69292,-1.11651l0.12189,-0.12879c0.45442,-0.4793 1.05503,-0.42819 1.46584,-0.22034c0.18694,0.09454 0.77659,0.45774 0.51256,1.16111c-0.01013,0.0271 -0.02133,0.0542 -0.03312,0.08056l-1.47692,3.30674c-0.14047,0.31445 -0.40057,0.57447 -0.73393,0.7341c-0.14107,-0.00619 -0.28261,-0.00928 -0.42463,-0.00928l-4.24967,0c-0.14202,0 -0.28333,0.00309 -0.42428,0.00928c-0.33087,-0.15909 -0.59418,-0.42061 -0.73417,-0.7341l-1.47656,-3.30599c-0.01203,-0.027 -0.02323,-0.0542 -0.03336,-0.08141c-0.26403,-0.70337 0.3255,-1.06657 0.5128,-1.16111zm29.00241,44.13178l-38.84879,0c-0.5321,0 -0.96317,0.38625 -0.96317,0.86256s0.43119,0.86256 0.96317,0.86256l38.84879,0l0,3.73802c0,0.79267 -0.72011,1.43768 -1.60536,1.43768l-46.23328,0c-0.88525,0 -1.60536,-0.6449 -1.60536,-1.43768l0,-3.73802l6.7423,0c0.5321,0 0.96317,-0.38625 0.96317,-0.86256s-0.43107,-0.86256 -0.96317,-0.86256l-6.7423,0l0,-14.37708l31.4643,0l0,2.01279c0,2.06112 1.87236,3.73802 4.17389,3.73802c0.33134,0 0.65399,-0.03489 0.96317,-0.10051l0,0.96307c0,2.06112 1.87236,3.73802 4.17389,3.73802c2.30152,0 4.17389,-1.6769 4.17389,-3.73802l0,-6.61338l4.49487,0l0,14.37708zm-10.93394,-9.65422c0.80149,-0.6816 1.30202,-1.64457 1.30202,-2.70997l0,-2.01279l3.2106,0l0,6.61338c0,1.10989 -1.00832,2.01279 -2.24743,2.01279c-1.23923,0 -2.24743,-0.903 -2.24743,-2.01279l0,-1.72523c0,-0.05655 -0.00608,-0.11193 -0.01775,-0.16539zm11.89711,-6.4482l-11.55826,0c-0.5321,0 -0.96317,0.38625 -0.96317,0.86256l0,2.87535c0,1.10989 -1.00832,2.01279 -2.24743,2.01279c-1.23923,0 -2.24743,-0.903 -2.24743,-2.01279l0,-2.87535c0,-0.47642 -0.43107,-0.86256 -0.96317,-0.86256l-33.39088,0c-1.59321,0 -2.88962,-1.1609 -2.88962,-2.5879c0,-1.4269 1.2963,-2.5879 2.88962,-2.5879l23.11664,0c0.5321,0 0.96317,-0.38625 0.96317,-0.86256s-0.43107,-0.86256 -0.96317,-0.86256l-2.67481,0c-0.00465,-0.00309 -0.00917,-0.00608 -0.0137,-0.00907c-1.35003,-0.87867 -2.27364,-2.16932 -2.6007,-3.6341l-0.75836,-3.39562c-0.39056,-1.7486 0.10949,-3.54233 1.37184,-4.92133c1.26246,-1.37899 3.12827,-2.16996 5.11942,-2.16996l4.24967,0c1.99115,0 3.85696,0.79086 5.11942,2.16996c1.26234,1.3791 1.76239,3.17283 1.37184,4.92133l-0.75836,3.39573c-0.32705,1.46488 -1.25078,2.75553 -2.60094,3.6341c-0.00453,0.00299 -0.00906,0.00608 -0.01346,0.00907l-3.95895,0c-0.5321,0 -0.96317,0.38625 -0.96317,0.86256c0,0.47642 0.43107,0.86256 0.96317,0.86256l24.40091,0c1.59321,0 2.88962,1.1609 2.88962,2.5879c-0.00012,1.42711 -1.29654,2.5879 -2.88974,2.5878z"/>
      <path fill="#000000" id="svg_10" d="m246.95302,40.87954c-0.5321,0 -0.96317,0.38625 -0.96317,0.86256l0,6.90093c0,0.47642 0.43119,0.86256 0.96317,0.86256s0.96317,-0.38625 0.96317,-0.86256l0,-6.90093c0,-0.47642 -0.43107,-0.86256 -0.96317,-0.86256z"/>
      <path fill="#000000" id="svg_11" d="m268.4643,24.48967l0,-1.15012c0,-0.47642 -0.43119,-0.86256 -0.96317,-0.86256c-0.5321,0 -0.96317,0.38625 -0.96317,0.86256l0,1.15012c0,0.47642 0.43119,0.86256 0.96317,0.86256c0.5321,0.00011 0.96317,-0.38604 0.96317,-0.86256z"/>
      <path fill="#000000" id="svg_12" d="m262.36407,22.47699c-0.5321,0 -0.96317,0.38625 -0.96317,0.86256l0,1.15012c0,0.47642 0.43119,0.86256 0.96317,0.86256s0.96317,-0.38625 0.96317,-0.86256l0,-1.15012c0,-0.47631 -0.43107,-0.86256 -0.96317,-0.86256z"/>
      <path fill="#000000" id="svg_13" d="m264.9326,17.87629c-0.5321,0 -0.96317,0.38625 -0.96317,0.86256l0,1.15012c0,0.47642 0.43107,0.86256 0.96317,0.86256c0.5321,0 0.96317,-0.38625 0.96317,-0.86256l0,-1.15012c0,-0.47631 -0.43107,-0.86256 -0.96317,-0.86256z"/>
     </g>
    </g>
   </g>
   <g stroke="null" id="svg_14"/>
   <g stroke="null" id="svg_15"/>
   <g stroke="null" id="svg_16"/>
   <g stroke="null" id="svg_17"/>
   <g stroke="null" id="svg_18"/>
   <g stroke="null" id="svg_19"/>
   <g stroke="null" id="svg_20"/>
   <g stroke="null" id="svg_21"/>
   <g stroke="null" id="svg_22"/>
   <g stroke="null" id="svg_23"/>
   <g stroke="null" id="svg_24"/>
   <g stroke="null" id="svg_25"/>
   <g stroke="null" id="svg_26"/>
   <g stroke="null" id="svg_27"/>
   <g stroke="null" id="svg_28"/>
  </g>
  <text stroke-width="0" transform="matrix(1.98843 0 0 1.98843 -38.3667 -29.4269)" font-style="normal" font-weight="normal" xml:space="preserve" text-anchor="start" font-family="'Quicksand'" font-size="24" id="svg_30" y="43.97963" x="28.03349" fill="#000000">NAGANO</text>
  <text stroke-width="0" transform="matrix(1.98843 0 0 1.98843 238.633 -30.4269)" font-style="normal" font-weight="normal" xml:space="preserve" text-anchor="start" font-family="'Quicksand'" font-size="24" id="svg_31" y="44.48254" x="43.12077" fill="#000000">CAKE</text>
 </g>

</svg>